<svg width="1862" height="773" viewBox="0 0 1862 773" fill="none" xmlns="http://www.w3.org/2000/svg">
<path opacity="0.0322581" d="M349.429 772.483C349.429 772.483 430.592 526.746 541.279 545.543C651.966 564.339 802.64 521.163 997.995 537.203C1193.35 553.243 793.356 347.934 997.642 263.563C1201.93 179.193 1422.24 301.944 1452.28 214.918C1482.32 127.893 1642.46 179.827 1664.34 43.3227C1686.21 -93.1811 1991.08 148.507 1796.41 69.3602" stroke="url(#paint0_linear_0_1)"/>
<path opacity="0.0645161" d="M334.367 758.413C334.367 758.413 419.983 514.074 530.312 534.723C640.64 555.372 792.076 514.728 987.11 534.04C1182.14 553.352 785.941 341.37 991.729 260.436C1197.52 179.503 1415.57 305.929 1447.18 219.42C1478.8 132.911 1637.97 187.521 1662.32 51.405C1686.68 -84.7113 1987.11 162.051 1793.91 79.6525" stroke="url(#paint1_linear_0_1)"/>
<path opacity="0.0967742" d="M319.528 744.226C319.528 744.226 409.571 501.359 519.507 523.855C629.444 546.35 781.594 508.25 976.249 530.829C1170.9 553.407 778.611 334.816 985.838 257.344C1193.07 179.873 1408.78 309.934 1441.97 223.968C1475.15 138.003 1633.3 195.273 1660.13 59.5856C1686.95 -76.1017 1982.86 175.659 1791.18 90.0345" stroke="url(#paint2_linear_0_1)"/>
<path opacity="0.129032" d="M304.914 729.922C304.914 729.922 399.356 488.602 508.867 512.936C618.378 537.271 771.198 501.728 965.412 527.566C1159.63 553.404 771.366 328.27 979.969 254.284C1188.57 180.297 1401.9 313.955 1436.64 228.559C1471.37 143.162 1628.46 203.075 1657.75 67.858C1687.04 -67.359 1978.32 189.323 1788.23 100.499" stroke="url(#paint3_linear_0_1)"/>
<path opacity="0.16129" d="M290.526 715.505C290.526 715.505 389.338 475.805 498.391 501.971C607.443 528.138 760.885 495.161 954.6 524.251C1148.32 553.341 764.205 321.733 974.121 251.255C1184.04 180.777 1394.9 317.99 1431.18 233.189C1467.47 148.388 1623.45 210.924 1655.19 76.219C1686.93 -58.4865 1973.5 203.039 1785.05 111.042" stroke="url(#paint4_linear_0_1)"/>
<path opacity="0.193548" d="M276.365 700.984C276.365 700.984 379.518 462.977 488.079 490.967C596.639 518.958 750.657 488.559 943.814 520.891C1136.97 553.224 757.127 315.212 968.292 248.263C1179.46 181.315 1387.79 322.042 1425.61 237.862C1463.44 153.682 1618.25 218.824 1652.43 84.6709C1686.62 -49.482 1968.39 216.808 1781.65 121.666" stroke="url(#paint5_linear_0_1)"/>
<path opacity="0.225806" d="M262.438 686.359C262.438 686.359 369.9 450.117 477.935 479.923C585.97 509.729 740.517 481.916 933.057 517.481C1125.6 553.047 750.136 308.704 962.485 245.305C1174.83 181.907 1380.58 326.105 1419.93 242.572C1459.27 159.039 1612.88 226.765 1649.5 93.2059C1686.11 -40.3536 1963.01 230.619 1778.02 132.361" stroke="url(#paint6_linear_0_1)"/>
<path opacity="0.258065" d="M248.74 671.633C248.74 671.633 360.479 437.228 467.956 468.841C575.433 500.453 730.461 475.235 922.326 514.023C1114.19 552.81 743.227 302.211 956.695 242.382C1170.16 182.552 1373.26 330.177 1414.12 247.316C1454.97 164.456 1607.33 234.747 1646.37 101.822C1685.4 -31.1038 1957.33 244.469 1774.15 143.125" stroke="url(#paint7_linear_0_1)"/>
<path opacity="0.290323" d="M235.277 656.812C235.277 656.812 351.258 424.316 458.144 457.725C565.03 491.134 720.494 468.519 911.624 510.517C1102.75 552.514 736.401 295.735 950.924 239.493C1165.45 183.251 1365.83 334.258 1408.19 252.094C1450.54 169.931 1601.6 242.766 1643.04 110.515C1684.49 -21.7358 1951.37 258.353 1770.06 153.954" stroke="url(#paint8_linear_0_1)"/>
<path opacity="0.322581" d="M222.051 641.899C222.051 641.899 342.239 411.382 448.501 446.578C554.764 481.774 710.615 461.768 900.953 506.963C1091.29 552.159 729.659 289.277 945.172 236.64C1160.68 184.003 1358.29 338.345 1402.14 256.904C1445.98 175.464 1595.69 250.819 1639.53 119.283C1683.37 -12.2527 1945.12 272.267 1765.74 164.845" stroke="url(#paint9_linear_0_1)"/>
<path opacity="0.354839" d="M209.062 626.899C209.062 626.899 333.42 398.432 439.027 435.404C544.634 472.376 700.824 454.985 890.312 503.364C1079.8 551.743 723 282.84 939.436 233.823C1155.87 184.806 1350.65 342.438 1395.96 261.744C1441.28 181.051 1589.59 258.905 1635.82 128.124C1682.04 -2.65739 1938.59 286.207 1761.18 175.794" stroke="url(#paint10_linear_0_1)"/>
<path opacity="0.387097" d="M196.312 611.816C196.312 611.816 324.802 385.468 429.722 424.205C534.641 462.941 691.123 448.172 879.704 499.72C1068.28 551.267 716.424 276.424 933.718 231.043C1151.01 185.662 1342.89 346.534 1389.67 266.613C1436.44 186.691 1583.32 267.019 1631.92 137.033C1680.51 7.04654 1931.76 300.167 1756.39 186.798" stroke="url(#paint11_linear_0_1)"/>
<path opacity="0.419355" d="M183.802 596.65C183.802 596.65 316.385 372.491 420.585 412.98C524.784 453.469 681.511 441.325 869.126 496.026C1056.74 550.727 709.928 270.028 928.014 228.296C1146.1 186.564 1335.03 350.628 1383.25 271.503C1431.47 192.378 1576.86 275.155 1627.81 146.004C1678.76 16.8516 1924.65 314.139 1751.37 197.847" stroke="url(#paint12_linear_0_1)"/>
<path opacity="0.451613" d="M171.535 581.409C171.535 581.409 308.171 359.507 411.619 401.736C515.066 443.966 671.99 434.451 858.583 492.289C1045.17 550.126 703.516 263.656 922.326 225.586C1141.14 187.516 1327.05 354.723 1376.71 276.418C1426.36 198.113 1570.23 283.315 1623.52 155.037C1676.8 26.7591 1917.25 328.123 1746.11 208.944" stroke="url(#paint13_linear_0_1)"/>
<path opacity="0.483871" d="M159.509 566.099C159.509 566.099 300.157 346.521 402.821 390.478C505.486 434.435 662.559 427.552 848.072 488.509C1033.58 549.465 697.183 257.312 916.652 222.915C1136.12 188.519 1318.97 358.816 1370.04 281.356C1421.1 203.895 1563.41 291.496 1619.02 164.131C1674.63 36.7655 1909.56 342.114 1740.61 220.085" stroke="url(#paint14_linear_0_1)"/>
<path opacity="0.516129" d="M147.73 550.718C147.73 550.718 292.346 333.531 394.196 379.203C496.046 424.874 653.22 420.625 837.597 484.682C1021.97 548.739 690.932 250.991 910.993 220.279C1131.05 189.567 1310.78 362.903 1363.25 286.31C1415.71 209.717 1556.4 299.691 1614.32 173.277C1672.23 46.863 1901.59 356.104 1734.88 231.26" stroke="url(#paint15_linear_0_1)"/>
<path opacity="0.548387" d="M136.195 535.276C136.195 535.276 284.736 320.547 385.741 367.919C486.745 415.29 643.973 413.676 827.158 480.815C1010.34 547.953 684.762 244.7 905.347 217.682C1125.93 190.663 1302.48 366.986 1356.33 291.284C1410.18 215.582 1549.21 307.9 1609.42 182.477C1669.62 57.0529 1893.32 370.091 1728.91 242.472" stroke="url(#paint16_linear_0_1)"/>
<path opacity="0.580645" d="M124.908 519.773C124.908 519.773 277.328 307.566 377.457 356.624C477.585 405.682 634.818 406.704 816.755 476.902C998.692 547.101 678.671 238.437 899.713 215.12C1120.76 191.803 1294.08 371.059 1349.29 296.271C1404.51 221.484 1541.84 316.118 1604.32 191.722C1666.79 67.327 1884.77 384.067 1722.7 253.712" stroke="url(#paint17_linear_0_1)"/>
<path opacity="0.612903" d="M113.868 504.218C113.868 504.218 270.12 294.598 369.342 345.327C468.564 396.055 625.755 399.713 806.389 472.95C987.023 546.188 672.658 232.207 894.091 212.599C1115.52 192.991 1285.56 375.124 1342.13 301.274C1398.7 227.423 1534.29 324.345 1599.01 201.016C1663.74 77.6865 1875.93 398.032 1716.25 264.98" stroke="url(#paint18_linear_0_1)"/>
<path opacity="0.645161" d="M103.076 488.61C103.076 488.61 263.114 281.641 361.399 334.025C459.684 386.409 616.784 392.701 796.06 468.955C975.335 545.21 666.724 226.007 888.479 210.114C1110.23 194.22 1276.94 379.176 1334.84 306.285C1392.74 233.394 1526.55 332.574 1593.5 210.349C1660.46 88.1233 1866.8 411.977 1709.56 276.269" stroke="url(#paint19_linear_0_1)"/>
<path opacity="0.677419" d="M92.5352 472.953C92.5352 472.953 256.309 268.699 353.627 322.723C450.946 376.746 607.907 385.671 785.77 464.918C963.633 544.166 660.869 219.839 882.879 207.665C1104.89 195.492 1268.2 383.214 1327.42 311.304C1386.64 239.395 1518.63 340.803 1587.79 219.718C1656.96 98.634 1857.38 425.897 1702.63 287.574" stroke="url(#paint20_linear_0_1)"/>
<path opacity="0.709677" d="M82.2452 457.258C82.2452 457.258 249.705 255.78 346.027 311.427C442.349 367.073 599.125 378.627 775.52 460.845C951.916 543.062 655.091 213.709 877.289 205.259C1099.49 196.808 1259.37 387.239 1319.88 316.334C1380.39 245.428 1510.52 349.033 1581.88 229.126C1653.23 109.22 1847.68 439.793 1695.47 298.896" stroke="url(#paint21_linear_0_1)"/>
<path opacity="0.741935" d="M72.2048 441.523C72.2048 441.523 243.3 242.883 338.597 300.136C433.893 357.389 590.435 371.569 765.309 456.73C940.184 541.892 649.389 207.614 871.707 202.889C1094.02 198.165 1250.42 391.247 1312.21 321.366C1374.01 251.486 1502.23 357.256 1575.75 238.564C1649.28 119.872 1837.68 453.654 1688.06 310.227" stroke="url(#paint22_linear_0_1)"/>
<path opacity="0.774194" d="M62.4182 425.753C62.4182 425.753 237.097 230.011 331.338 288.853C425.58 347.695 581.84 364.497 755.141 452.577C928.442 540.657 643.765 201.555 866.134 200.558C1088.5 199.561 1241.37 395.235 1304.42 326.401C1367.47 257.567 1493.75 365.47 1569.42 248.029C1645.09 130.587 1827.41 467.476 1680.41 321.564" stroke="url(#paint23_linear_0_1)"/>
<path opacity="0.806452" d="M52.8827 409.949C52.8827 409.949 231.092 217.164 324.249 277.577C417.407 337.989 573.338 357.408 745.012 448.38C916.686 539.351 638.215 195.529 860.568 198.26C1082.92 200.99 1232.21 399.197 1296.5 331.431C1360.8 263.664 1485.1 373.668 1562.89 257.513C1640.68 141.357 1816.85 481.252 1672.52 332.897" stroke="url(#paint24_linear_0_1)"/>
<path opacity="0.83871" d="M43.6012 394.123C43.6012 394.123 225.286 204.355 317.332 266.32C409.378 328.285 564.932 350.315 734.927 444.15C904.922 537.985 632.74 189.548 855.01 196.005C1077.28 202.462 1222.94 403.142 1288.46 336.463C1353.97 269.784 1476.26 381.855 1556.15 267.022C1636.04 152.188 1806 494.983 1664.39 344.232" stroke="url(#paint25_linear_0_1)"/>
<path opacity="0.870968" d="M34.5733 378.275C34.5733 378.275 219.679 191.582 310.585 255.08C401.49 318.579 556.621 343.213 724.885 439.883C893.149 536.554 627.34 183.607 849.458 193.789C1071.58 203.971 1213.57 407.062 1280.29 341.491C1347 275.921 1467.23 390.025 1549.2 276.548C1631.16 163.071 1794.87 508.663 1656.03 355.561" stroke="url(#paint26_linear_0_1)"/>
<path opacity="0.903226" d="M25.7986 362.411C25.7986 362.411 214.268 178.849 304.006 243.862C393.745 308.874 548.404 336.105 714.886 435.581C881.367 535.058 622.012 177.708 843.912 191.613C1065.81 205.517 1204.09 410.956 1271.99 346.514C1339.89 282.072 1458.03 398.174 1542.04 286.088C1626.06 174.002 1783.46 522.286 1647.42 366.88" stroke="url(#paint27_linear_0_1)"/>
<path opacity="0.935484" d="M17.2778 346.534C17.2778 346.534 209.054 166.159 297.597 232.666C386.141 299.173 540.282 328.992 704.93 431.244C869.579 533.496 616.757 171.854 838.37 189.476C1059.98 207.097 1194.51 414.823 1263.57 351.529C1332.63 288.235 1448.64 406.3 1534.68 295.639C1620.72 184.979 1771.77 535.848 1638.57 378.185" stroke="url(#paint28_linear_0_1)"/>
<path opacity="0.967742" d="M9.01184 330.645C9.01184 330.645 204.036 153.512 291.358 221.493C378.679 289.474 532.255 321.872 695.02 426.869C857.786 531.865 611.573 166.04 832.833 187.374C1054.09 208.708 1184.82 418.657 1255.02 356.53C1325.22 294.404 1439.07 414.395 1527.1 305.194C1615.14 195.992 1759.79 549.34 1629.48 389.468" stroke="url(#paint29_linear_0_1)"/>
<g style="mix-blend-mode:darken">
<path d="M1 314.752C1 314.752 199.213 140.916 285.286 210.35C371.359 279.785 524.323 314.752 685.156 422.461C845.989 530.17 606.461 160.273 827.299 185.313C1048.14 210.352 1175.03 422.461 1246.35 361.52C1317.67 300.58 1429.32 422.461 1519.32 314.752C1609.33 207.043 1747.54 562.762 1620.15 400.73" stroke="url(#paint30_linear_0_1)"/>
</g>
<defs>
<linearGradient id="paint0_linear_0_1" x1="1004.81" y1="258.178" x2="1131.97" y2="487.487" gradientUnits="userSpaceOnUse">
<stop stop-color="#E82323"/>
<stop offset="0.0001" stop-color="#E82323"/>
<stop offset="0.485043" stop-color="#FF005A"/>
<stop offset="1" stop-color="#23B8E8"/>
</linearGradient>
<linearGradient id="paint1_linear_0_1" x1="998.996" y1="255.173" x2="1122.15" y2="486.484" gradientUnits="userSpaceOnUse">
<stop stop-color="#E82323"/>
<stop offset="0.0001" stop-color="#E82323"/>
<stop offset="0.485043" stop-color="#FF005A"/>
<stop offset="1" stop-color="#23B8E8"/>
</linearGradient>
<linearGradient id="paint2_linear_0_1" x1="993.2" y1="252.203" x2="1112.32" y2="485.447" gradientUnits="userSpaceOnUse">
<stop stop-color="#E82323"/>
<stop offset="0.0001" stop-color="#E82323"/>
<stop offset="0.485043" stop-color="#FF005A"/>
<stop offset="1" stop-color="#23B8E8"/>
</linearGradient>
<linearGradient id="paint3_linear_0_1" x1="987.423" y1="249.266" x2="1102.48" y2="484.375" gradientUnits="userSpaceOnUse">
<stop stop-color="#E82323"/>
<stop offset="0.0001" stop-color="#E82323"/>
<stop offset="0.485043" stop-color="#FF005A"/>
<stop offset="1" stop-color="#23B8E8"/>
</linearGradient>
<linearGradient id="paint4_linear_0_1" x1="981.665" y1="246.363" x2="1092.64" y2="483.266" gradientUnits="userSpaceOnUse">
<stop stop-color="#E82323"/>
<stop offset="0.0001" stop-color="#E82323"/>
<stop offset="0.485043" stop-color="#FF005A"/>
<stop offset="1" stop-color="#23B8E8"/>
</linearGradient>
<linearGradient id="paint5_linear_0_1" x1="975.924" y1="243.499" x2="1082.8" y2="482.128" gradientUnits="userSpaceOnUse">
<stop stop-color="#E82323"/>
<stop offset="0.0001" stop-color="#E82323"/>
<stop offset="0.485043" stop-color="#FF005A"/>
<stop offset="1" stop-color="#23B8E8"/>
</linearGradient>
<linearGradient id="paint6_linear_0_1" x1="970.202" y1="240.67" x2="1072.96" y2="480.956" gradientUnits="userSpaceOnUse">
<stop stop-color="#E82323"/>
<stop offset="0.0001" stop-color="#E82323"/>
<stop offset="0.485043" stop-color="#FF005A"/>
<stop offset="1" stop-color="#23B8E8"/>
</linearGradient>
<linearGradient id="paint7_linear_0_1" x1="964.495" y1="237.876" x2="1063.11" y2="479.751" gradientUnits="userSpaceOnUse">
<stop stop-color="#E82323"/>
<stop offset="0.0001" stop-color="#E82323"/>
<stop offset="0.485043" stop-color="#FF005A"/>
<stop offset="1" stop-color="#23B8E8"/>
</linearGradient>
<linearGradient id="paint8_linear_0_1" x1="958.805" y1="235.119" x2="1053.26" y2="478.513" gradientUnits="userSpaceOnUse">
<stop stop-color="#E82323"/>
<stop offset="0.0001" stop-color="#E82323"/>
<stop offset="0.485043" stop-color="#FF005A"/>
<stop offset="1" stop-color="#23B8E8"/>
</linearGradient>
<linearGradient id="paint9_linear_0_1" x1="953.131" y1="232.399" x2="1043.4" y2="477.243" gradientUnits="userSpaceOnUse">
<stop stop-color="#E82323"/>
<stop offset="0.0001" stop-color="#E82323"/>
<stop offset="0.485043" stop-color="#FF005A"/>
<stop offset="1" stop-color="#23B8E8"/>
</linearGradient>
<linearGradient id="paint10_linear_0_1" x1="947.471" y1="229.716" x2="1033.55" y2="475.943" gradientUnits="userSpaceOnUse">
<stop stop-color="#E82323"/>
<stop offset="0.0001" stop-color="#E82323"/>
<stop offset="0.485043" stop-color="#FF005A"/>
<stop offset="1" stop-color="#23B8E8"/>
</linearGradient>
<linearGradient id="paint11_linear_0_1" x1="941.826" y1="227.071" x2="1023.69" y2="474.612" gradientUnits="userSpaceOnUse">
<stop stop-color="#E82323"/>
<stop offset="0.0001" stop-color="#E82323"/>
<stop offset="0.485043" stop-color="#FF005A"/>
<stop offset="1" stop-color="#23B8E8"/>
</linearGradient>
<linearGradient id="paint12_linear_0_1" x1="936.193" y1="224.46" x2="1013.83" y2="473.247" gradientUnits="userSpaceOnUse">
<stop stop-color="#E82323"/>
<stop offset="0.0001" stop-color="#E82323"/>
<stop offset="0.485043" stop-color="#FF005A"/>
<stop offset="1" stop-color="#23B8E8"/>
</linearGradient>
<linearGradient id="paint13_linear_0_1" x1="930.574" y1="221.889" x2="1003.98" y2="471.853" gradientUnits="userSpaceOnUse">
<stop stop-color="#E82323"/>
<stop offset="0.0001" stop-color="#E82323"/>
<stop offset="0.485043" stop-color="#FF005A"/>
<stop offset="1" stop-color="#23B8E8"/>
</linearGradient>
<linearGradient id="paint14_linear_0_1" x1="924.966" y1="219.357" x2="994.115" y2="470.43" gradientUnits="userSpaceOnUse">
<stop stop-color="#E82323"/>
<stop offset="0.0001" stop-color="#E82323"/>
<stop offset="0.485043" stop-color="#FF005A"/>
<stop offset="1" stop-color="#23B8E8"/>
</linearGradient>
<linearGradient id="paint15_linear_0_1" x1="919.37" y1="216.86" x2="984.254" y2="468.975" gradientUnits="userSpaceOnUse">
<stop stop-color="#E82323"/>
<stop offset="0.0001" stop-color="#E82323"/>
<stop offset="0.485043" stop-color="#FF005A"/>
<stop offset="1" stop-color="#23B8E8"/>
</linearGradient>
<linearGradient id="paint16_linear_0_1" x1="913.785" y1="214.404" x2="974.393" y2="467.493" gradientUnits="userSpaceOnUse">
<stop stop-color="#E82323"/>
<stop offset="0.0001" stop-color="#E82323"/>
<stop offset="0.485043" stop-color="#FF005A"/>
<stop offset="1" stop-color="#23B8E8"/>
</linearGradient>
<linearGradient id="paint17_linear_0_1" x1="908.21" y1="211.984" x2="964.532" y2="465.979" gradientUnits="userSpaceOnUse">
<stop stop-color="#E82323"/>
<stop offset="0.0001" stop-color="#E82323"/>
<stop offset="0.485043" stop-color="#FF005A"/>
<stop offset="1" stop-color="#23B8E8"/>
</linearGradient>
<linearGradient id="paint18_linear_0_1" x1="902.643" y1="209.606" x2="954.669" y2="464.44" gradientUnits="userSpaceOnUse">
<stop stop-color="#E82323"/>
<stop offset="0.0001" stop-color="#E82323"/>
<stop offset="0.485043" stop-color="#FF005A"/>
<stop offset="1" stop-color="#23B8E8"/>
</linearGradient>
<linearGradient id="paint19_linear_0_1" x1="897.084" y1="207.264" x2="944.805" y2="462.869" gradientUnits="userSpaceOnUse">
<stop stop-color="#E82323"/>
<stop offset="0.0001" stop-color="#E82323"/>
<stop offset="0.485043" stop-color="#FF005A"/>
<stop offset="1" stop-color="#23B8E8"/>
</linearGradient>
<linearGradient id="paint20_linear_0_1" x1="891.534" y1="204.961" x2="934.942" y2="461.269" gradientUnits="userSpaceOnUse">
<stop stop-color="#E82323"/>
<stop offset="0.0001" stop-color="#E82323"/>
<stop offset="0.485043" stop-color="#FF005A"/>
<stop offset="1" stop-color="#23B8E8"/>
</linearGradient>
<linearGradient id="paint21_linear_0_1" x1="885.992" y1="202.699" x2="925.08" y2="459.644" gradientUnits="userSpaceOnUse">
<stop stop-color="#E82323"/>
<stop offset="0.0001" stop-color="#E82323"/>
<stop offset="0.485043" stop-color="#FF005A"/>
<stop offset="1" stop-color="#23B8E8"/>
</linearGradient>
<linearGradient id="paint22_linear_0_1" x1="880.455" y1="200.476" x2="915.216" y2="457.99" gradientUnits="userSpaceOnUse">
<stop stop-color="#E82323"/>
<stop offset="0.0001" stop-color="#E82323"/>
<stop offset="0.485043" stop-color="#FF005A"/>
<stop offset="1" stop-color="#23B8E8"/>
</linearGradient>
<linearGradient id="paint23_linear_0_1" x1="874.925" y1="198.292" x2="905.353" y2="456.308" gradientUnits="userSpaceOnUse">
<stop stop-color="#E82323"/>
<stop offset="0.0001" stop-color="#E82323"/>
<stop offset="0.485043" stop-color="#FF005A"/>
<stop offset="1" stop-color="#23B8E8"/>
</linearGradient>
<linearGradient id="paint24_linear_0_1" x1="869.399" y1="196.142" x2="895.49" y2="454.592" gradientUnits="userSpaceOnUse">
<stop stop-color="#E82323"/>
<stop offset="0.0001" stop-color="#E82323"/>
<stop offset="0.485043" stop-color="#FF005A"/>
<stop offset="1" stop-color="#23B8E8"/>
</linearGradient>
<linearGradient id="paint25_linear_0_1" x1="863.878" y1="194.035" x2="885.627" y2="452.854" gradientUnits="userSpaceOnUse">
<stop stop-color="#E82323"/>
<stop offset="0.0001" stop-color="#E82323"/>
<stop offset="0.485043" stop-color="#FF005A"/>
<stop offset="1" stop-color="#23B8E8"/>
</linearGradient>
<linearGradient id="paint26_linear_0_1" x1="858.361" y1="191.968" x2="875.764" y2="451.088" gradientUnits="userSpaceOnUse">
<stop stop-color="#E82323"/>
<stop offset="0.0001" stop-color="#E82323"/>
<stop offset="0.485043" stop-color="#FF005A"/>
<stop offset="1" stop-color="#23B8E8"/>
</linearGradient>
<linearGradient id="paint27_linear_0_1" x1="852.846" y1="189.941" x2="865.901" y2="449.295" gradientUnits="userSpaceOnUse">
<stop stop-color="#E82323"/>
<stop offset="0.0001" stop-color="#E82323"/>
<stop offset="0.485043" stop-color="#FF005A"/>
<stop offset="1" stop-color="#23B8E8"/>
</linearGradient>
<linearGradient id="paint28_linear_0_1" x1="847.333" y1="187.954" x2="856.038" y2="447.475" gradientUnits="userSpaceOnUse">
<stop stop-color="#E82323"/>
<stop offset="0.0001" stop-color="#E82323"/>
<stop offset="0.485043" stop-color="#FF005A"/>
<stop offset="1" stop-color="#23B8E8"/>
</linearGradient>
<linearGradient id="paint29_linear_0_1" x1="841.822" y1="186.003" x2="846.175" y2="445.624" gradientUnits="userSpaceOnUse">
<stop stop-color="#E82323"/>
<stop offset="0.0001" stop-color="#E82323"/>
<stop offset="0.485043" stop-color="#FF005A"/>
<stop offset="1" stop-color="#23B8E8"/>
</linearGradient>
<linearGradient id="paint30_linear_0_1" x1="836.312" y1="184.093" x2="836.312" y2="443.747" gradientUnits="userSpaceOnUse">
<stop stop-color="#E82323"/>
<stop offset="0.0001" stop-color="#E82323"/>
<stop offset="0.485043" stop-color="#FF005A"/>
<stop offset="1" stop-color="#23B8E8"/>
</linearGradient>
</defs>
</svg>
